<?xml version="1.0" standalone="no"?>
<!DOCTYPE svg PUBLIC "-//W3C//DTD SVG 20010904//EN"
 "http://www.w3.org/TR/2001/REC-SVG-20010904/DTD/svg10.dtd">
<svg version="1.0" xmlns="http://www.w3.org/2000/svg"
 width="96.000000pt" height="96.000000pt" viewBox="0 0 96.000000 96.000000"
 preserveAspectRatio="xMidYMid meet">
<metadata>
Created by potrace 1.14, written by Peter Selinger 2001-2017
</metadata>
<g transform="translate(0.000000,96.000000) scale(0.100000,-0.100000)"
fill="#000000" stroke="none">
<path d="M172 814 c-84 -42 -132 -121 -132 -217 0 -90 65 -193 194 -306 60
-53 230 -171 247 -171 4 0 55 32 113 70 135 91 250 205 295 293 30 59 33 73
29 130 -8 128 -97 217 -224 225 -54 4 -72 0 -119 -22 -30 -15 -64 -39 -75 -53
l-20 -26 -20 26 c-11 14 -43 37 -72 51 -71 35 -145 35 -216 0z"/>
</g>
</svg>
